<?xml version="1.0" encoding="UTF-8" standalone="no"?>
<!-- Created with Inkscape (http://www.inkscape.org/) -->

<svg
   width="210mm"
   height="297mm"
   viewBox="0 0 210 297"
   version="1.1"
   id="svg5"
   inkscape:version="1.1 (c4e8f9ed74, 2021-05-24)"
   sodipodi:docname="konzept3.svg"
   xmlns:inkscape="http://www.inkscape.org/namespaces/inkscape"
   xmlns:sodipodi="http://sodipodi.sourceforge.net/DTD/sodipodi-0.dtd"
   xmlns="http://www.w3.org/2000/svg"
   xmlns:svg="http://www.w3.org/2000/svg">
  <sodipodi:namedview
     id="namedview7"
     pagecolor="#ffffff"
     bordercolor="#666666"
     borderopacity="1.0"
     inkscape:pageshadow="2"
     inkscape:pageopacity="0.0"
     inkscape:pagecheckerboard="0"
     inkscape:document-units="mm"
     showgrid="false"
     inkscape:zoom="0.94245225"
     inkscape:cx="687.03746"
     inkscape:cy="508.24856"
     inkscape:window-width="2560"
     inkscape:window-height="1383"
     inkscape:window-x="0"
     inkscape:window-y="0"
     inkscape:window-maximized="1"
     inkscape:current-layer="layer1" />
  <defs
     id="defs2">
    <linearGradient
       id="linearGradient5267">
      <stop
         id="stop5269"
         style="stop-color:#15414b"
         offset="0" />
      <stop
         id="stop5271"
         style="stop-color:#000000"
         offset="1" />
    </linearGradient>
    <linearGradient
       id="linearGradient3956">
      <stop
         id="stop3958"
         style="stop-color:#0b2822"
         offset="0" />
      <stop
         id="stop3960"
         style="stop-color:#000000"
         offset="1" />
    </linearGradient>
    <linearGradient
       id="linearGradient3874">
      <stop
         id="stop3876"
         style="stop-color:#aa0000"
         offset="0" />
      <stop
         id="stop3878"
         style="stop-color:#d03031"
         offset="1" />
    </linearGradient>
    <linearGradient
       id="linearGradient3794">
      <stop
         id="stop3796"
         style="stop-color:#88aa00;stop-opacity:.57286"
         offset="0" />
      <stop
         id="stop3802"
         style="stop-color:#88aa00;stop-opacity:0"
         offset=".5" />
      <stop
         id="stop3798"
         style="stop-color:#88aa00;stop-opacity:.56784"
         offset="1" />
    </linearGradient>
    <clipPath
       clipPathUnits="userSpaceOnUse"
       id="clipPath831">
      <path
         d="M 0,660 H 660 V 0 H 0 Z"
         id="path829"
         inkscape:connector-curvature="0" />
    </clipPath>
  </defs>
  <g
     inkscape:label="Ebene 1"
     inkscape:groupmode="layer"
     id="layer1">
    <text
       xml:space="preserve"
       style="font-size:22.5778px;line-height:1.25;font-family:'Fira Sans';-inkscape-font-specification:'Fira Sans';stroke-width:0.264583"
       x="62.065113"
       y="48.582226"
       id="text1485"><tspan
         sodipodi:role="line"
         id="tspan1483"
         style="font-style:normal;font-variant:normal;font-weight:bold;font-stretch:normal;font-size:22.5778px;font-family:FreeSans;-inkscape-font-specification:'FreeSans Bold';stroke-width:0.264583"
         x="62.065113"
         y="48.582226">konzept<tspan
   style="font-style:italic;font-size:22.5778px"
   id="tspan11007"><tspan
   style="font-style:normal"
   id="tspan318">.</tspan>WTF</tspan></tspan></text>
    <g
       id="g823"
       inkscape:label="toucan-silhouette-stencil-freesvg.org"
       transform="matrix(0.35277777,0,0,-0.35277777,-61.598572,260.9612)">
      <path
         d="m 315.48349,595.93176 1.0464,-6.85166 1.62699,1.97834 -8.83851,20.45843 -0.26329,-3.06789 -14.90735,14.90795 c -1.85594,2.18645 -3.30153,4.69047 -4.26781,7.39116 -1.49813,4.18795 -1.49813,8.76601 0,12.95457 l 1.48111,4.13982 c -4.83986,-3.54897 -7.69906,-9.19191 -7.69906,-15.19414 0,-6.00133 2.8592,-11.64429 7.69906,-15.19412 6.35591,-4.66024 11.96129,-10.26592 16.62211,-16.62153 l 2.93786,-4.00656 v 5.20913 z M 268.0751,701.85392 c -0.28559,0 -0.54948,-0.0915 -0.76434,-0.24772 0.0419,0.008 0.0855,0.0126 0.1298,0.0126 0.36895,0 0.66805,-0.29881 0.66805,-0.66777 0,-0.36866 -0.2991,-0.66776 -0.66805,-0.66776 -0.31142,0 -0.57295,0.21339 -0.64691,0.50163 -0.0142,-0.0755 -0.0205,-0.15376 -0.0205,-0.23334 0,-0.71942 0.58292,-1.30236 1.30206,-1.30236 0.71942,0 1.30234,0.58294 1.30234,1.30236 0,0.71912 -0.58292,1.30206 -1.30234,1.30206 m 0.31729,1.1186 c -1.337,0 -2.42037,-1.08367 -2.42037,-2.42066 0,-1.33669 1.08337,-2.42068 2.42037,-2.42068 1.3367,0 2.42068,1.08399 2.42068,2.42068 0,1.33699 -1.08398,2.42066 -2.42068,2.42066 m -5.45949,6.56138 h 9.01608 c 6.65061,0 12.79608,-3.54779 16.12137,-9.30756 3.32501,-5.75947 3.32501,-12.85566 0,-18.61541 -5.08262,-8.80329 -2.06639,-20.06013 6.7366,-25.14245 4.07996,-2.35552 7.46778,-5.74334 9.823,-9.82357 10.61313,-18.38149 16.20061,-39.23354 16.20061,-60.45924 l -5.34707,9.74607 -0.51543,-7.7281 c -1.22868,-18.4367 3.68134,-36.76184 13.96399,-52.11359 l -9.84206,-4.8161 c -9.91398,-4.85191 -21.51364,-4.85191 -31.42734,0 l 3.60622,15.97138 c 2.79608,12.38014 2.79608,25.22844 0,37.60949 -0.68009,3.01269 -1.68512,5.92471 -2.98805,8.68851 0.0834,-0.001 0.1676,-0.005 0.25213,-0.011 1.33053,-0.0937 2.22519,-0.53538 2.88473,-2.19349 -0.38011,1.50312 -1.29355,2.64611 -2.43388,2.90351 -2.48143,0.55888 -4.94641,-1.14062 -6.22764,-4.2945 l -0.73644,-1.81426 -0.51426,-0.51072 -0.0787,-2.29974 -0.66542,2.72065 c 0.46553,4.48558 2.72476,7.99786 5.60919,9.09387 -0.68155,1.14415 -1.41682,2.25572 -2.20434,3.33205 -1.52748,-0.88819 -3.35612,-1.0552 -4.9969,-0.50281 l -2.14153,-1.81394 c 0.97214,-1.944 0.87791,-3.79642 -0.0552,-5.57779 0.0267,2.25247 -1.60761,4.18092 -3.83368,4.52434 -3.62352,0.55856 -7.22328,-1.14092 -9.09388,-4.2948 l -1.07576,-1.81426 -0.75053,-0.51073 -0.11513,-2.29974 -0.97096,2.72094 c 0.83183,5.49355 5.59393,9.52946 11.14998,9.44903 l 2.11748,-0.03 1.81307,1.75114 c -1.95515,2.31617 -2.61674,5.49737 -1.68775,8.43611 -5.60097,5.33944 -11.03083,10.85704 -16.28192,16.54197 -9.62398,10.42117 -9.87875,26.33855 -0.76669,37.05208 l -2.07577,-4.04767 c -4.25841,-8.30019 -4.25841,-18.14314 0,-26.44304 5.21324,-10.57557 24.36756,-1.32553 22.2002,11.30762 l -0.83244,4.85191 c -0.65219,3.80139 -1.65252,7.53468 -2.98834,11.15234 -2.69599,7.30193 -2.69599,15.3265 0,22.62843 l 2.3203,5.5502 c 1.6176,3.86891 1.34491,8.26908 -0.73557,11.90816 -0.4984,0.12506 -1.01587,0.17464 -1.53542,0.14493 l -0.63166,-0.0364 c 0.23513,-1.60645 -0.53361,-3.19381 -1.93958,-4.00598 -1.40626,-0.81158 -3.16505,-0.68332 -4.43863,0.32345 -1.23955,0.98036 -1.77727,2.60384 -1.36869,4.12984 0.40918,1.52632 1.68658,2.66342 3.25016,2.89236 1.68306,0.24658 3.39341,-0.21162 4.72745,-1.26653 l 1.05639,-0.83536 c -2.17469,2.92934 -5.45979,4.87391 -9.12235,5.34414 -0.81745,0.10487 -1.64489,0.10487 -2.46176,0 l 0.005,-0.0279 c 0.22454,-0.78137 0.35369,-1.56302 0.40475,-2.33232 v -10e-4 c 0.29941,-1.72473 0.75347,-3.41866 1.35638,-5.06209 0.93516,-2.54717 0.16876,-5.40754 -1.91465,-7.14576 -1.05256,-0.8788 -1.66162,-2.17939 -1.66162,-3.55074 0,-1.37132 0.60906,-2.67162 1.66162,-3.55043 2.59649,-2.16647 3.55131,-5.73101 2.38604,-8.90572 -0.92254,-2.51403 -2.13507,-4.90739 -3.61001,-7.13228 2.34142,5.3682 1.94487,11.63607 -1.19112,16.69872 -1.19111,1.92344 -1.18816,4.20411 0.008,6.12491 l 0.78607,1.26273 c 1.73822,2.79403 2.45001,6.02805 2.13536,9.18251 -0.13185,-1.23366 -0.4394,-2.40011 -0.84329,-3.43977 -0.77136,-1.98713 -2.52986,-3.26073 -4.65906,-3.37461 -17.44486,-0.93399 -31.71528,-3.63116 -46.30623,-7.15311 14.42248,1.81661 29.26643,5.1331 43.23129,5.32799 0.90788,0.0126 1.68806,-0.50954 2.02471,-1.35254 0.33521,-0.843 0.12648,-1.75878 -0.54096,-2.37312 -4.01301,-3.69544 -9.12674,-5.31567 -16.46948,-5.29542 -9.17695,0.0246 -18.38469,0.32405 -27.37144,-1.33993 -6.79178,-1.25773 -10.99384,-0.81627 -16.27046,1.12214 -4.91356,-1.28387 -9.98561,-2.62028 -15.33532,-3.97692 0,4.85748 2.59179,9.3463 6.79913,11.77519 22.39742,12.93108 40.70436,15.73128 63.68532,16.24847 l -0.27034,-0.0238 c -0.42443,-0.0364 -0.85327,-0.0751 -1.28738,-0.11655 -0.1514,-0.0142 -0.30234,-0.0282 -0.45527,-0.0432 -0.19929,-0.0194 -0.40094,-0.0399 -0.6017,-0.0609 l -0.46172,-0.0471 -0.6158,-0.0658 -0.51367,-0.0566 c -0.1902,-0.0211 -0.37923,-0.0423 -0.57031,-0.0645 -0.18902,-0.0214 -0.37981,-0.044 -0.56972,-0.0666 -0.18521,-0.0221 -0.36955,-0.0435 -0.55534,-0.0661 -0.19785,-0.0238 -0.39715,-0.0494 -0.59586,-0.074 -0.34282,-0.0432 -0.68684,-0.0869 -1.03349,-0.13216 -0.19049,-0.0249 -0.38128,-0.0498 -0.57354,-0.0751 -0.19285,-0.0265 -0.38655,-0.0535 -0.58,-0.0792 l -0.59555,-0.0828 -0.56531,-0.08 c -0.20313,-0.0293 -0.40684,-0.0587 -0.61024,-0.0883 -0.19666,-0.029 -0.39304,-0.0579 -0.59026,-0.0878 -0.19519,-0.0289 -0.3901,-0.0587 -0.58588,-0.0883 -0.20166,-0.0308 -0.40243,-0.0614 -0.60466,-0.0931 -0.2216,-0.0344 -0.44439,-0.0699 -0.66747,-0.10535 -0.19372,-0.0304 -0.38596,-0.061 -0.57969,-0.0921 -0.23366,-0.0378 -0.4676,-0.076 -0.70094,-0.11481 1.11332,-0.11449 1.74998,-0.37806 1.76436,-0.79838 0.0472,-1.40216 -6.84814,-4.01508 -15.40166,-5.8355 -8.55379,-1.82042 -15.52698,-2.15914 -15.57424,-0.75669 -0.002,0.0519 0.008,0.10488 0.0235,0.15966 -0.20634,-0.0732 -0.4121,-0.14682 -0.61669,-0.22102 -0.14683,-0.0531 -0.29322,-0.10614 -0.43882,-0.15996 -0.22102,-0.0811 -0.4397,-0.16233 -0.6569,-0.24392 -0.13027,-0.0494 -0.26094,-0.0975 -0.39067,-0.14698 -0.23952,-0.091 -0.47756,-0.18288 -0.71355,-0.27503 -0.11182,-0.0432 -0.22366,-0.086 -0.33404,-0.12979 -0.34018,-0.13357 -0.67715,-0.26827 -1.01001,-0.40417 l -0.005,-0.002 c -0.33403,-0.13642 -0.66395,-0.27384 -0.99034,-0.4124 -0.10251,-0.0435 -0.20312,-0.0869 -0.30467,-0.13058 -0.22366,-0.0962 -0.44675,-0.19284 -0.66689,-0.28941 -0.12127,-0.0535 -0.24244,-0.10771 -0.36278,-0.16144 -0.19579,-0.0878 -0.3901,-0.17581 -0.58264,-0.26387 -0.12412,-0.0566 -0.24714,-0.11355 -0.36985,-0.17054 -0.20165,-0.0937 -0.40035,-0.18843 -0.59818,-0.28266 -0.10393,-0.0498 -0.20929,-0.0998 -0.31262,-0.14998 -0.23921,-0.11654 -0.47608,-0.23394 -0.7106,-0.35163 -0.0596,-0.0296 -0.1197,-0.059 -0.17846,-0.0889 -0.28912,-0.14682 -0.57296,-0.2944 -0.85327,-0.44293 -0.0798,-0.0423 -0.15644,-0.0848 -0.2354,-0.12711 -0.20019,-0.10771 -0.3989,-0.21544 -0.59381,-0.32405 -0.0989,-0.0555 -0.19666,-0.11071 -0.2941,-0.16583 -0.17406,-0.0986 -0.34606,-0.19754 -0.51602,-0.29705 -0.0962,-0.0561 -0.19254,-0.11276 -0.28705,-0.16936 -0.17143,-0.10188 -0.33902,-0.20459 -0.50575,-0.30702 -0.0878,-0.0541 -0.17522,-0.10771 -0.2621,-0.16203 -0.18286,-0.11544 -0.3625,-0.23129 -0.53921,-0.34723 -0.0634,-0.0415 -0.12853,-0.0828 -0.19079,-0.12412 -0.23598,-0.15707 -0.46757,-0.31523 -0.69299,-0.47403 -0.0443,-0.0314 -0.0859,-0.0631 -0.12948,-0.0942 -0.17961,-0.12805 -0.35662,-0.25684 -0.52803,-0.386 -0.0736,-0.0552 -0.14556,-0.11149 -0.21779,-0.16701 -0.13862,-0.10676 -0.27562,-0.21339 -0.40888,-0.32052 -0.0755,-0.0606 -0.14998,-0.12159 -0.22396,-0.18286 -0.12679,-0.10503 -0.25155,-0.21045 -0.37335,-0.31583 -0.071,-0.0613 -0.14209,-0.1227 -0.21104,-0.18404 -0.12537,-0.11213 -0.24744,-0.22484 -0.36778,-0.33784 -0.0566,-0.0535 -0.11529,-0.10629 -0.17083,-0.15968 -0.17201,-0.16642 -0.33962,-0.33315 -0.49899,-0.50134 3.64524,1.71094 12.33082,5.65792 13.197,2.21374 17.94119,4.74771 34.53719,8.65301 52.92659,11.09188 1.72621,0.22865 3.05497,1.33552 2.98453,2.48613 l -0.005,0.0787 v 0.005 l -0.003,0.0708 -5.8e-4,0.011 -0.003,0.0634 -8.8e-4,0.0158 -10e-4,0.0563 -5.8e-4,0.0197 v 10e-4 l -0.002,0.0688 v 0.003 l -5.9e-4,0.0435 -5.8e-4,0.0273 v 0.0158 0.0423 0.009 l 5.8e-4,0.0314 v 0.0158 l 5.9e-4,0.0379 v 0.008 l 0.002,0.0372 5.8e-4,0.0214 10e-4,0.0399 8.8e-4,0.001 0.002,0.0405 8.7e-4,0.017 6e-4,0.0126 0.003,0.0453 8.9e-4,0.008 0.005,0.0467 v 0.005 l 0.005,0.0487 5.8e-4,8.8e-4 0.005,0.0483 9e-4,0.003 0.006,0.0438 10e-4,0.005 0.006,0.0396 0.002,0.008 0.008,0.0355 5.9e-4,0.005 0.006,0.0297 0.003,0.0126 0.005,0.0205 0.008,0.0265 0.005,0.0178 0.006,0.0211 0.005,0.0205 0.008,0.0211 0.005,0.0167 0.008,0.0226 0.005,0.0175 0.009,0.0241 0.003,0.008 0.005,0.011 0.011,0.027 0.005,0.008 0.0126,0.0289 0.003,0.006 0.0158,0.0306 0.002,0.003 0.017,0.0322 5.8e-4,10e-4 0.0191,0.0331 5.9e-4,0.001 0.0194,0.0314 10e-4,0.003 0.005,0.009 c 0.0126,0.0199 0.0259,0.0396 0.0396,0.0593 l 5.8e-4,8.7e-4 0.0238,0.0331 0.0158,0.0218 0.009,0.0126 0.0158,0.0194 0.011,0.0142 0.005,0.005 0.0218,0.027 0.002,0.002 c 0.0352,0.0416 0.0725,0.0845 0.11245,0.12711 l 0.006,0.006 0.005,0.006 0.0267,0.0285 0.005,0.005 0.0293,0.0311 0.002,0.002 0.0323,0.0337 8.8e-4,3e-4 0.0328,0.0333 0.003,0.003 0.0672,0.0672 0.008,0.008 0.0393,0.0388 0.0267,0.0265 0.0142,0.0142 0.0243,0.0241 0.0173,0.0167 0.0222,0.0221 0.0199,0.0199 0.0205,0.02 0.0238,0.0235 0.0181,0.0173 0.027,0.0273 0.0158,0.0158 0.0437,0.0435 0.0349,0.0349 0.009,0.009 0.0393,0.0393 0.006,0.008 0.0432,0.044 0.003,0.003 0.0483,0.0491 0.0487,0.0511 0.003,0.003 0.0467,0.0491 0.008,0.008 0.044,0.047 0.17201,3e-4 v 5.8e-4 h 1.04992 z"
         style="fill:#231f20;fill-opacity:1;fill-rule:evenodd;stroke:none;stroke-width:0.293521"
         id="path925"
         inkscape:connector-curvature="0" />
    </g>
  </g>
</svg>
